<svg xmlns="http://www.w3.org/2000/svg" viewBox="0 0 512 512" fill="none">
  <defs>
    <linearGradient id="shieldGrad" x1="50%" y1="0%" x2="50%" y2="100%">
      <stop offset="0%" stop-color="#3B82F6"/>
      <stop offset="100%" stop-color="#1D4ED8"/>
    </linearGradient>
    <linearGradient id="innerGrad" x1="50%" y1="0%" x2="50%" y2="100%">
      <stop offset="0%" stop-color="#60A5FA"/>
      <stop offset="100%" stop-color="#3B82F6"/>
    </linearGradient>
  </defs>
  <!-- Shield body -->
  <path d="M256 28L60 120v152c0 118.7 83.6 229.6 196 260 112.4-30.4 196-141.3 196-260V120L256 28z" fill="url(#shieldGrad)"/>
  <!-- Inner shield highlight -->
  <path d="M256 60L88 140v132c0 103.2 72.4 199.6 168 228V60z" fill="url(#innerGrad)" opacity="0.15"/>
  <!-- Checkmark / link icon -->
  <path d="M200 260c0-30.9 25.1-56 56-56s56 25.1 56 56-25.1 56-56 56-56-25.1-56-56z" fill="none" stroke="#fff" stroke-width="16"/>
  <!-- Chain link top -->
  <path d="M236 204v-40c0-22.1 17.9-40 40-40s40 17.9 40 40v40" fill="none" stroke="#fff" stroke-width="16" stroke-linecap="round"/>
  <!-- Chain link bottom -->
  <path d="M196 316v40c0 22.1 17.9 40 40 40s40-17.9 40-40v-40" fill="none" stroke="#fff" stroke-width="16" stroke-linecap="round"/>
  <!-- Guard checkmark -->
  <path d="M224 258l24 24 40-40" fill="none" stroke="#fff" stroke-width="20" stroke-linecap="round" stroke-linejoin="round"/>
</svg>
