<svg xmlns="http://www.w3.org/2000/svg" viewBox="0 0 128 128">
  <defs>
    <linearGradient id="shieldGrad" x1="0%" y1="0%" x2="0%" y2="100%">
      <stop offset="0%" style="stop-color:#175ddc;stop-opacity:1" />
      <stop offset="100%" style="stop-color:#1244a0;stop-opacity:1" />
    </linearGradient>
    <linearGradient id="checkGrad" x1="0%" y1="0%" x2="100%" y2="100%">
      <stop offset="0%" style="stop-color:#2ecc71;stop-opacity:1" />
      <stop offset="100%" style="stop-color:#27ae60;stop-opacity:1" />
    </linearGradient>
  </defs>
  <!-- Shield body -->
  <path d="M64 8 L112 28 L112 60 C112 88 92 112 64 120 C36 112 16 88 16 60 L16 28 Z"
        fill="url(#shieldGrad)" stroke="#0f3d91" stroke-width="2"/>
  <!-- Inner shield highlight -->
  <path d="M64 16 L104 33 L104 60 C104 84 87 105 64 112 C41 105 24 84 24 60 L24 33 Z"
        fill="none" stroke="rgba(255,255,255,0.15)" stroke-width="1.5"/>
  <!-- Check mark -->
  <path d="M42 62 L56 76 L86 46"
        fill="none" stroke="url(#checkGrad)" stroke-width="8" stroke-linecap="round" stroke-linejoin="round"/>
  <!-- Link chain icon (small, bottom) -->
  <circle cx="50" cy="96" r="4" fill="rgba(255,255,255,0.4)"/>
  <circle cx="64" cy="96" r="4" fill="rgba(255,255,255,0.4)"/>
  <circle cx="78" cy="96" r="4" fill="rgba(255,255,255,0.4)"/>
  <line x1="54" y1="96" x2="60" y2="96" stroke="rgba(255,255,255,0.4)" stroke-width="2"/>
  <line x1="68" y1="96" x2="74" y2="96" stroke="rgba(255,255,255,0.4)" stroke-width="2"/>
</svg>
